<?xml version="1.0" encoding="UTF-8"?>
<svg xmlns="http://www.w3.org/2000/svg" xmlns:xlink="http://www.w3.org/1999/xlink" width="375pt" height="374.999991pt" viewBox="0 0 375 374.999991" version="1.2">
<defs>
<clipPath id="clip1">
  <path d="M 112.5 112.5 L 262.5 112.5 L 262.5 262.5 L 112.5 262.5 Z M 112.5 112.5 "/>
</clipPath>
</defs>
<g id="surface1">
<path style=" stroke:none;fill-rule:nonzero;fill:rgb(100%,100%,100%);fill-opacity:1;" d="M 244.441406 260.824219 L 130.558594 260.824219 C 121.507812 260.824219 114.175781 253.492188 114.175781 244.441406 L 114.175781 130.558594 C 114.175781 121.507812 121.507812 114.175781 130.558594 114.175781 L 244.484375 114.175781 C 253.492188 114.175781 260.824219 121.507812 260.824219 130.558594 L 260.824219 244.484375 C 260.824219 253.492188 253.492188 260.824219 244.441406 260.824219 Z M 244.441406 260.824219 "/>
<g clip-path="url(#clip1)" clip-rule="nonzero">
<path style=" stroke:none;fill-rule:nonzero;fill:rgb(0%,0%,0%);fill-opacity:1;" d="M 244.441406 262.5 L 130.558594 262.5 C 120.585938 262.5 112.5 254.414062 112.5 244.441406 L 112.5 130.558594 C 112.5 120.585938 120.585938 112.5 130.558594 112.5 L 244.484375 112.5 C 254.414062 112.5 262.5 120.585938 262.5 130.558594 L 262.5 244.484375 C 262.5 254.414062 254.414062 262.5 244.441406 262.5 Z M 130.558594 115.851562 C 122.429688 115.851562 115.851562 122.429688 115.851562 130.558594 L 115.851562 244.484375 C 115.851562 252.570312 122.429688 259.148438 130.558594 259.148438 L 244.484375 259.148438 C 252.570312 259.148438 259.191406 252.570312 259.191406 244.441406 L 259.191406 130.558594 C 259.191406 122.472656 252.613281 115.851562 244.523438 115.851562 Z M 130.558594 115.851562 "/>
</g>
<path style=" stroke:none;fill-rule:nonzero;fill:rgb(4.708862%,4.309082%,4.309082%);fill-opacity:1;" d="M 202.164062 187.5 C 202.164062 188.464844 202.070312 189.417969 201.882812 190.359375 C 201.695312 191.304688 201.417969 192.222656 201.046875 193.113281 C 200.679688 194 200.226562 194.847656 199.691406 195.648438 C 199.160156 196.449219 198.550781 197.1875 197.871094 197.871094 C 197.1875 198.550781 196.449219 199.160156 195.648438 199.691406 C 194.847656 200.226562 194 200.679688 193.113281 201.046875 C 192.222656 201.417969 191.304688 201.695312 190.359375 201.882812 C 189.417969 202.070312 188.464844 202.164062 187.5 202.164062 C 186.535156 202.164062 185.582031 202.070312 184.640625 201.882812 C 183.695312 201.695312 182.777344 201.417969 181.886719 201.046875 C 181 200.679688 180.152344 200.226562 179.351562 199.691406 C 178.550781 199.160156 177.8125 198.550781 177.128906 197.871094 C 176.449219 197.1875 175.839844 196.449219 175.308594 195.648438 C 174.773438 194.847656 174.320312 194 173.953125 193.113281 C 173.582031 192.222656 173.304688 191.304688 173.117188 190.359375 C 172.929688 189.417969 172.835938 188.464844 172.835938 187.5 C 172.835938 186.535156 172.929688 185.582031 173.117188 184.640625 C 173.304688 183.695312 173.582031 182.777344 173.953125 181.886719 C 174.320312 181 174.773438 180.152344 175.308594 179.351562 C 175.839844 178.550781 176.449219 177.8125 177.128906 177.128906 C 177.8125 176.449219 178.550781 175.839844 179.351562 175.304688 C 180.152344 174.773438 181 174.320312 181.886719 173.953125 C 182.777344 173.582031 183.695312 173.304688 184.640625 173.117188 C 185.582031 172.929688 186.535156 172.835938 187.5 172.835938 C 188.464844 172.835938 189.417969 172.929688 190.359375 173.117188 C 191.304688 173.304688 192.222656 173.582031 193.113281 173.953125 C 194 174.320312 194.847656 174.773438 195.648438 175.308594 C 196.449219 175.839844 197.1875 176.449219 197.871094 177.128906 C 198.550781 177.8125 199.160156 178.550781 199.691406 179.351562 C 200.226562 180.152344 200.679688 181 201.046875 181.886719 C 201.417969 182.777344 201.695312 183.695312 201.882812 184.640625 C 202.070312 185.582031 202.164062 186.535156 202.164062 187.5 Z M 202.164062 187.5 "/>
</g>
</svg>
