<?xml version="1.0" encoding="UTF-8"?>
<svg xmlns="http://www.w3.org/2000/svg" xmlns:xlink="http://www.w3.org/1999/xlink" width="375pt" height="374.999991pt" viewBox="0 0 375 374.999991" version="1.2">
<defs>
<clipPath id="clip1">
  <path d="M 112.5 112.5 L 262.5 112.5 L 262.5 262.5 L 112.5 262.5 Z M 112.5 112.5 "/>
</clipPath>
</defs>
<g id="surface1">
<path style=" stroke:none;fill-rule:nonzero;fill:rgb(100%,100%,100%);fill-opacity:1;" d="M 244.441406 260.824219 L 130.558594 260.824219 C 121.507812 260.824219 114.175781 253.492188 114.175781 244.441406 L 114.175781 130.558594 C 114.175781 121.507812 121.507812 114.175781 130.558594 114.175781 L 244.484375 114.175781 C 253.492188 114.175781 260.824219 121.507812 260.824219 130.558594 L 260.824219 244.484375 C 260.824219 253.492188 253.492188 260.824219 244.441406 260.824219 Z M 244.441406 260.824219 "/>
<g clip-path="url(#clip1)" clip-rule="nonzero">
<path style=" stroke:none;fill-rule:nonzero;fill:rgb(0%,0%,0%);fill-opacity:1;" d="M 244.441406 262.5 L 130.558594 262.5 C 120.585938 262.5 112.5 254.414062 112.5 244.441406 L 112.5 130.558594 C 112.5 120.585938 120.585938 112.5 130.558594 112.5 L 244.484375 112.5 C 254.414062 112.5 262.5 120.585938 262.5 130.558594 L 262.5 244.484375 C 262.5 254.414062 254.414062 262.5 244.441406 262.5 Z M 130.558594 115.851562 C 122.429688 115.851562 115.851562 122.429688 115.851562 130.558594 L 115.851562 244.484375 C 115.851562 252.570312 122.429688 259.148438 130.558594 259.148438 L 244.484375 259.148438 C 252.570312 259.148438 259.191406 252.570312 259.191406 244.441406 L 259.191406 130.558594 C 259.191406 122.472656 252.613281 115.851562 244.523438 115.851562 Z M 130.558594 115.851562 "/>
</g>
<path style=" stroke:none;fill-rule:nonzero;fill:rgb(4.708862%,4.309082%,4.309082%);fill-opacity:1;" d="M 237.988281 151.632812 C 237.988281 152.597656 237.894531 153.550781 237.707031 154.496094 C 237.519531 155.4375 237.242188 156.355469 236.871094 157.246094 C 236.503906 158.136719 236.050781 158.980469 235.515625 159.78125 C 234.980469 160.582031 234.375 161.324219 233.695312 162.003906 C 233.011719 162.683594 232.273438 163.292969 231.472656 163.828125 C 230.671875 164.363281 229.824219 164.8125 228.9375 165.183594 C 228.046875 165.550781 227.128906 165.828125 226.183594 166.015625 C 225.242188 166.203125 224.285156 166.300781 223.324219 166.300781 C 222.359375 166.300781 221.40625 166.203125 220.464844 166.015625 C 219.519531 165.828125 218.601562 165.550781 217.710938 165.183594 C 216.824219 164.8125 215.976562 164.363281 215.175781 163.828125 C 214.375 163.292969 213.636719 162.683594 212.953125 162.003906 C 212.273438 161.324219 211.664062 160.582031 211.128906 159.78125 C 210.59375 158.980469 210.144531 158.136719 209.777344 157.246094 C 209.40625 156.355469 209.128906 155.4375 208.941406 154.496094 C 208.753906 153.550781 208.660156 152.597656 208.660156 151.632812 C 208.660156 150.671875 208.753906 149.71875 208.941406 148.773438 C 209.128906 147.828125 209.40625 146.910156 209.777344 146.023438 C 210.144531 145.132812 210.59375 144.289062 211.128906 143.488281 C 211.664062 142.6875 212.273438 141.945312 212.953125 141.265625 C 213.636719 140.582031 214.375 139.976562 215.175781 139.441406 C 215.976562 138.90625 216.824219 138.453125 217.710938 138.085938 C 218.601562 137.71875 219.519531 137.4375 220.464844 137.25 C 221.40625 137.0625 222.359375 136.96875 223.324219 136.96875 C 224.285156 136.96875 225.242188 137.0625 226.183594 137.25 C 227.128906 137.4375 228.046875 137.71875 228.9375 138.085938 C 229.824219 138.453125 230.671875 138.90625 231.472656 139.441406 C 232.273438 139.976562 233.011719 140.582031 233.695312 141.265625 C 234.375 141.945312 234.980469 142.6875 235.515625 143.488281 C 236.050781 144.289062 236.503906 145.132812 236.871094 146.023438 C 237.242188 146.910156 237.519531 147.828125 237.707031 148.773438 C 237.894531 149.71875 237.988281 150.671875 237.988281 151.632812 Z M 237.988281 151.632812 "/>
<path style=" stroke:none;fill-rule:nonzero;fill:rgb(4.708862%,4.309082%,4.309082%);fill-opacity:1;" d="M 166.300781 223.324219 C 166.300781 224.285156 166.203125 225.242188 166.015625 226.183594 C 165.828125 227.128906 165.550781 228.046875 165.183594 228.9375 C 164.8125 229.824219 164.363281 230.671875 163.828125 231.472656 C 163.292969 232.273438 162.683594 233.011719 162.003906 233.695312 C 161.324219 234.375 160.582031 234.980469 159.78125 235.515625 C 158.980469 236.050781 158.136719 236.503906 157.246094 236.871094 C 156.355469 237.242188 155.4375 237.519531 154.496094 237.707031 C 153.550781 237.894531 152.597656 237.988281 151.632812 237.988281 C 150.671875 237.988281 149.71875 237.894531 148.773438 237.707031 C 147.828125 237.519531 146.910156 237.242188 146.023438 236.871094 C 145.132812 236.503906 144.289062 236.050781 143.488281 235.515625 C 142.6875 234.980469 141.945312 234.375 141.265625 233.695312 C 140.582031 233.011719 139.976562 232.273438 139.441406 231.472656 C 138.90625 230.671875 138.453125 229.824219 138.085938 228.9375 C 137.71875 228.046875 137.4375 227.128906 137.25 226.183594 C 137.0625 225.242188 136.96875 224.285156 136.96875 223.324219 C 136.96875 222.359375 137.0625 221.40625 137.25 220.464844 C 137.4375 219.519531 137.71875 218.601562 138.085938 217.710938 C 138.453125 216.824219 138.90625 215.976562 139.441406 215.175781 C 139.976562 214.375 140.582031 213.636719 141.265625 212.953125 C 141.945312 212.273438 142.6875 211.664062 143.488281 211.128906 C 144.289062 210.59375 145.132812 210.144531 146.023438 209.777344 C 146.910156 209.40625 147.828125 209.128906 148.773438 208.941406 C 149.71875 208.753906 150.671875 208.660156 151.632812 208.660156 C 152.597656 208.660156 153.550781 208.753906 154.496094 208.941406 C 155.4375 209.128906 156.355469 209.40625 157.246094 209.777344 C 158.136719 210.144531 158.980469 210.59375 159.78125 211.128906 C 160.582031 211.664062 161.324219 212.273438 162.003906 212.953125 C 162.683594 213.636719 163.292969 214.375 163.828125 215.175781 C 164.363281 215.976562 164.8125 216.824219 165.183594 217.710938 C 165.550781 218.601562 165.828125 219.519531 166.015625 220.464844 C 166.203125 221.40625 166.300781 222.359375 166.300781 223.324219 Z M 166.300781 223.324219 "/>
</g>
</svg>
