<?xml version="1.0" encoding="UTF-8"?>
<svg xmlns="http://www.w3.org/2000/svg" xmlns:xlink="http://www.w3.org/1999/xlink" width="375pt" height="374.999991pt" viewBox="0 0 375 374.999991" version="1.2">
<defs>
<clipPath id="clip1">
  <path d="M 112.5 112.5 L 262.5 112.5 L 262.5 262.5 L 112.5 262.5 Z M 112.5 112.5 "/>
</clipPath>
</defs>
<g id="surface1">
<path style=" stroke:none;fill-rule:nonzero;fill:rgb(100%,100%,100%);fill-opacity:1;" d="M 244.441406 260.824219 L 130.558594 260.824219 C 121.507812 260.824219 114.175781 253.492188 114.175781 244.441406 L 114.175781 130.558594 C 114.175781 121.507812 121.507812 114.175781 130.558594 114.175781 L 244.484375 114.175781 C 253.492188 114.175781 260.824219 121.507812 260.824219 130.558594 L 260.824219 244.484375 C 260.824219 253.492188 253.492188 260.824219 244.441406 260.824219 Z M 244.441406 260.824219 "/>
<g clip-path="url(#clip1)" clip-rule="nonzero">
<path style=" stroke:none;fill-rule:nonzero;fill:rgb(0.389099%,0.389099%,0.389099%);fill-opacity:1;" d="M 244.441406 262.5 L 130.558594 262.5 C 120.585938 262.5 112.5 254.414062 112.5 244.441406 L 112.5 130.558594 C 112.5 120.585938 120.585938 112.5 130.558594 112.5 L 244.484375 112.5 C 254.414062 112.5 262.5 120.585938 262.5 130.558594 L 262.5 244.484375 C 262.5 254.414062 254.414062 262.5 244.441406 262.5 Z M 130.558594 115.851562 C 122.429688 115.851562 115.851562 122.429688 115.851562 130.558594 L 115.851562 244.484375 C 115.851562 252.570312 122.429688 259.148438 130.558594 259.148438 L 244.484375 259.148438 C 252.570312 259.148438 259.191406 252.570312 259.191406 244.441406 L 259.191406 130.558594 C 259.191406 122.472656 252.613281 115.851562 244.523438 115.851562 Z M 130.558594 115.851562 "/>
</g>
<path style=" stroke:none;fill-rule:nonzero;fill:rgb(4.708862%,4.309082%,4.309082%);fill-opacity:1;" d="M 237.988281 151.632812 C 237.988281 143.546875 231.410156 136.96875 223.324219 136.96875 C 215.238281 136.96875 208.660156 143.546875 208.660156 151.632812 C 208.660156 159.71875 215.238281 166.300781 223.324219 166.300781 C 231.410156 166.300781 237.988281 159.761719 237.988281 151.632812 Z M 166.300781 223.324219 C 166.300781 215.238281 159.71875 208.660156 151.632812 208.660156 C 143.546875 208.660156 136.96875 215.238281 136.96875 223.324219 C 136.96875 231.410156 143.546875 237.988281 151.632812 237.988281 C 159.71875 237.988281 166.300781 231.453125 166.300781 223.324219 Z M 151.632812 166.300781 C 159.71875 166.300781 166.300781 159.71875 166.300781 151.632812 C 166.300781 143.546875 159.71875 136.96875 151.632812 136.96875 C 143.546875 136.96875 136.96875 143.546875 136.96875 151.632812 C 136.96875 159.71875 143.546875 166.300781 151.632812 166.300781 Z M 223.324219 237.988281 C 231.410156 237.988281 237.988281 231.410156 237.988281 223.324219 C 237.988281 215.238281 231.410156 208.660156 223.324219 208.660156 C 215.238281 208.660156 208.660156 215.238281 208.660156 223.324219 C 208.660156 231.410156 215.238281 237.988281 223.324219 237.988281 Z M 202.164062 187.5 C 202.164062 179.414062 195.585938 172.835938 187.5 172.835938 C 179.414062 172.835938 172.835938 179.414062 172.835938 187.5 C 172.835938 195.585938 179.414062 202.164062 187.5 202.164062 C 195.585938 202.164062 202.164062 195.585938 202.164062 187.5 Z M 202.164062 187.5 "/>
</g>
</svg>
