<?xml version="1.0" encoding="UTF-8"?>
<svg xmlns="http://www.w3.org/2000/svg" xmlns:xlink="http://www.w3.org/1999/xlink" width="375pt" height="374.999991pt" viewBox="0 0 375 374.999991" version="1.2">
<defs>
<clipPath id="clip1">
  <path d="M 112.5 112.5 L 262.5 112.5 L 262.5 262.5 L 112.5 262.5 Z M 112.5 112.5 "/>
</clipPath>
</defs>
<g id="surface1">
<path style=" stroke:none;fill-rule:nonzero;fill:rgb(100%,100%,100%);fill-opacity:1;" d="M 244.441406 260.824219 L 130.558594 260.824219 C 121.507812 260.824219 114.175781 253.492188 114.175781 244.441406 L 114.175781 130.558594 C 114.175781 121.507812 121.507812 114.175781 130.558594 114.175781 L 244.484375 114.175781 C 253.492188 114.175781 260.824219 121.507812 260.824219 130.558594 L 260.824219 244.484375 C 260.824219 253.492188 253.492188 260.824219 244.441406 260.824219 Z M 244.441406 260.824219 "/>
<g clip-path="url(#clip1)" clip-rule="nonzero">
<path style=" stroke:none;fill-rule:nonzero;fill:rgb(0.389099%,0.389099%,0.389099%);fill-opacity:1;" d="M 244.441406 262.5 L 130.558594 262.5 C 120.585938 262.5 112.5 254.414062 112.5 244.441406 L 112.5 130.558594 C 112.5 120.585938 120.585938 112.5 130.558594 112.5 L 244.484375 112.5 C 254.414062 112.5 262.5 120.585938 262.5 130.558594 L 262.5 244.484375 C 262.5 254.414062 254.414062 262.5 244.441406 262.5 Z M 130.558594 115.851562 C 122.429688 115.851562 115.851562 122.429688 115.851562 130.558594 L 115.851562 244.484375 C 115.851562 252.570312 122.429688 259.148438 130.558594 259.148438 L 244.484375 259.148438 C 252.570312 259.148438 259.191406 252.570312 259.191406 244.441406 L 259.191406 130.558594 C 259.191406 122.472656 252.613281 115.851562 244.523438 115.851562 Z M 130.558594 115.851562 "/>
</g>
<path style=" stroke:none;fill-rule:nonzero;fill:rgb(4.708862%,4.309082%,4.309082%);fill-opacity:1;" d="M 242.597656 151.632812 C 242.597656 143.546875 236.019531 136.96875 227.933594 136.96875 C 219.847656 136.96875 213.269531 143.546875 213.269531 151.632812 C 213.269531 159.722656 219.847656 166.300781 227.933594 166.300781 C 236.0625 166.300781 242.597656 159.761719 242.597656 151.632812 Z M 161.691406 223.324219 C 161.691406 215.238281 155.113281 208.660156 147.023438 208.660156 C 138.9375 208.660156 132.359375 215.238281 132.359375 223.324219 C 132.359375 231.410156 138.9375 237.988281 147.023438 237.988281 C 155.113281 237.988281 161.691406 231.453125 161.691406 223.324219 Z M 147.023438 166.300781 C 155.113281 166.300781 161.691406 159.722656 161.691406 151.632812 C 161.691406 143.546875 155.113281 136.96875 147.023438 136.96875 C 138.9375 136.96875 132.359375 143.546875 132.359375 151.632812 C 132.359375 159.722656 138.9375 166.300781 147.023438 166.300781 Z M 227.933594 237.988281 C 236.019531 237.988281 242.597656 231.410156 242.597656 223.324219 C 242.597656 215.238281 236.019531 208.660156 227.933594 208.660156 C 219.847656 208.660156 213.269531 215.238281 213.269531 223.324219 C 213.269531 231.410156 219.847656 237.988281 227.933594 237.988281 Z M 202.164062 151.632812 C 202.164062 143.546875 195.585938 136.96875 187.5 136.96875 C 179.414062 136.96875 172.835938 143.546875 172.835938 151.632812 C 172.835938 159.722656 179.414062 166.300781 187.5 166.300781 C 195.585938 166.300781 202.164062 159.761719 202.164062 151.632812 Z M 202.164062 223.324219 C 202.164062 215.238281 195.585938 208.660156 187.5 208.660156 C 179.414062 208.660156 172.835938 215.238281 172.835938 223.324219 C 172.835938 231.410156 179.414062 237.988281 187.5 237.988281 C 195.585938 237.988281 202.164062 231.453125 202.164062 223.324219 Z M 202.164062 223.324219 "/>
</g>
</svg>
